<svg width="252" height="78" viewBox="0 0 252 78" fill="none" xmlns="http://www.w3.org/2000/svg">
<g filter="url(#filter0_d_53309_28407)">
<circle cx="39" cy="35" r="35" fill="#F6E611"/>
<rect x="59" y="15" width="189" height="41" rx="11" fill="#F6E611"/>
</g>
<path d="M17.25 24.25V23.125H34.125V24.25H17.25ZM17.25 26.5V25.375H34.125V26.5H17.25ZM17.25 28.75V27.625H34.125V28.75H29.625V49H28.5V28.75H27.375V49H26.25V28.75H25.125V49H24V28.75H22.875V49H21.75V28.75H17.25ZM51.4531 39.0312V26.5H52.5781V39.0312C52.5781 40.2188 52.1198 41.2396 51.2031 42.0938C50.2969 42.9479 49.2031 43.375 47.9219 43.375C46.6406 43.375 45.5417 42.9479 44.625 42.0938C43.7188 41.2396 43.2656 40.2188 43.2656 39.0312V26.5H44.3906V39.0312C44.3906 39.9167 44.7344 40.6771 45.4219 41.3125C46.1198 41.9375 46.9531 42.25 47.9219 42.25C48.8906 42.25 49.7188 41.9375 50.4062 41.3125C51.1042 40.6771 51.4531 39.9167 51.4531 39.0312ZM53.7031 39.0312V26.5H54.8281V39.0312C54.8281 40.8542 54.151 42.4115 52.7969 43.7031C51.4427 44.9844 49.8177 45.625 47.9219 45.625C46.026 45.625 44.401 44.9844 43.0469 43.7031C41.6927 42.4115 41.0156 40.8542 41.0156 39.0312V26.5H42.1406V39.0312C42.1406 40.5417 42.7031 41.8333 43.8281 42.9062C44.9635 43.9688 46.3281 44.5 47.9219 44.5C49.5052 44.5 50.8646 43.9688 52 42.9062C53.1354 41.8333 53.7031 40.5417 53.7031 39.0312ZM55.9531 39.0312V26.5H57.0781V39.0312C57.0781 40.625 56.6667 42.1042 55.8438 43.4688C55.0208 44.8229 53.9062 45.8958 52.5 46.6875C51.0938 47.4792 49.5677 47.875 47.9219 47.875C46.276 47.875 44.75 47.4792 43.3438 46.6875C41.9375 45.8958 40.8229 44.8229 40 43.4688C39.1771 42.1042 38.7656 40.625 38.7656 39.0312V26.5H39.8906V39.0312C39.8906 40.4167 40.25 41.7031 40.9688 42.8906C41.6875 44.0781 42.6615 45.0208 43.8906 45.7188C45.1302 46.4062 46.474 46.75 47.9219 46.75C49.3698 46.75 50.7083 46.4062 51.9375 45.7188C53.1771 45.0208 54.1562 44.0781 54.875 42.8906C55.5938 41.7031 55.9531 40.4167 55.9531 39.0312ZM58.2031 39.0312V26.5H59.3281V39.0312C59.3281 40.5312 59.026 41.9688 58.4219 43.3438C57.8177 44.7083 57.0052 45.8854 55.9844 46.875C54.9635 47.8646 53.75 48.651 52.3438 49.2344C50.9375 49.8281 49.4635 50.125 47.9219 50.125C46.3802 50.125 44.9062 49.8281 43.5 49.2344C42.0938 48.651 40.8802 47.8646 39.8594 46.875C38.8385 45.8854 38.026 44.7083 37.4219 43.3438C36.8177 41.9688 36.5156 40.5312 36.5156 39.0312V26.5H37.6406V39.0312C37.6406 40.8229 38.099 42.4844 39.0156 44.0156C39.9427 45.5469 41.1927 46.7604 42.7656 47.6562C44.349 48.5521 46.0677 49 47.9219 49C49.776 49 51.4896 48.5521 53.0625 47.6562C54.6458 46.7604 55.8958 45.5469 56.8125 44.0156C57.7396 42.4844 58.2031 40.8229 58.2031 39.0312Z" fill="#000965"/>
<path d="M80.6875 39.4062L81.1406 38.2812H84.9844L85.4375 39.4062H80.6875ZM79.8125 41.6562L80.25 40.5312H85.8594L86.3438 41.6562H79.8125ZM78.9375 43.9062L79.375 42.7812H86.75L87.2188 43.9062H78.9375ZM69.7969 47H68.5781L78.8125 21.125H80.0312L90.25 47H89.0469L79.4219 22.6406L69.7969 47ZM79.5625 25.3125L80.2031 26.75L72.2031 47H71L79.5625 25.3125ZM80.8125 28.2812L81.4062 29.8281L74.6406 47H73.4219L80.8125 28.2812ZM82 31.375L82.5938 32.9531L77.0469 47H75.8438L82 31.375ZM97.5156 47H96.2969L86.0781 21.125H87.2812L97.5156 47ZM84.8594 21.125L95.0938 47H93.8906L83.6562 21.125H84.8594ZM82.4375 21.125L92.6719 47H91.4531L81.2344 21.125H82.4375ZM99.4844 24.5H100.609V47H99.4844V24.5ZM106.234 24.5H107.359V41.375H115.656V42.5H107.359V43.625H115.656V44.75H107.359V45.875H115.656V47H106.234V24.5ZM103.984 24.5H105.109V47H103.984V24.5ZM101.734 24.5H102.859V47H101.734V24.5ZM134.109 35.9062C134.109 34.5729 133.698 33.5417 132.875 32.8125C132.052 32.0833 130.964 31.7188 129.609 31.7188C128.464 31.7188 127.479 32.1146 126.656 32.9062C125.833 33.6979 125.422 34.6458 125.422 35.75C125.422 36.375 125.505 36.9375 125.672 37.4375C125.839 37.9271 126.062 38.3385 126.344 38.6719C126.635 38.9948 126.979 39.2656 127.375 39.4844C127.771 39.6927 128.182 39.8438 128.609 39.9375C129.047 40.0312 129.51 40.0781 130 40.0781C131.188 40.0781 132.271 39.7865 133.25 39.2031V40.3281C132.24 40.8594 131.151 41.125 129.984 41.125C129.234 41.125 128.526 41.026 127.859 40.8281C127.203 40.6198 126.604 40.3125 126.062 39.9062C125.521 39.4896 125.089 38.9271 124.766 38.2188C124.453 37.5 124.297 36.6771 124.297 35.75C124.297 34.3125 124.802 33.0938 125.812 32.0938C126.823 31.0938 128.089 30.5938 129.609 30.5938C131.286 30.5938 132.641 31.0677 133.672 32.0156C134.714 32.9531 135.234 34.25 135.234 35.9062V47H134.109V35.9062ZM137.484 35.9062V47H136.359V35.9062C136.359 33.9375 135.729 32.375 134.469 31.2188C133.208 30.0521 131.589 29.4688 129.609 29.4688C127.776 29.4688 126.245 30.0781 125.016 31.2969C123.786 32.5156 123.172 34 123.172 35.75C123.172 36.8125 123.354 37.7656 123.719 38.6094C124.094 39.4531 124.599 40.1302 125.234 40.6406C125.87 41.151 126.578 41.5417 127.359 41.8125C128.151 42.0729 128.984 42.2031 129.859 42.2031C131.047 42.2031 132.177 41.9271 133.25 41.375V42.5625C132.125 43.0312 130.99 43.2656 129.844 43.2656C128.812 43.2656 127.833 43.1094 126.906 42.7969C125.979 42.474 125.151 42.0104 124.422 41.4062C123.693 40.7917 123.115 40 122.688 39.0312C122.26 38.0521 122.047 36.9583 122.047 35.75C122.047 33.6979 122.771 31.9531 124.219 30.5156C125.677 29.0677 127.474 28.3438 129.609 28.3438C131.109 28.3438 132.453 28.651 133.641 29.2656C134.828 29.8698 135.766 30.75 136.453 31.9062C137.141 33.0625 137.484 34.3958 137.484 35.9062ZM139.734 35.9062V47H138.609V35.9062C138.609 34.1875 138.214 32.6667 137.422 31.3438C136.641 30.0104 135.568 28.9896 134.203 28.2812C132.839 27.5729 131.307 27.2188 129.609 27.2188C127.995 27.2188 126.521 27.6042 125.188 28.375C123.854 29.1354 122.807 30.1667 122.047 31.4688C121.297 32.7708 120.922 34.1979 120.922 35.75C120.922 37.0833 121.167 38.3021 121.656 39.4062C122.146 40.5 122.802 41.401 123.625 42.1094C124.458 42.8177 125.401 43.3698 126.453 43.7656C127.516 44.151 128.625 44.3438 129.781 44.3438C130.958 44.3438 132.115 44.099 133.25 43.6094V44.75C132.062 45.1979 130.896 45.4219 129.75 45.4219C127.948 45.4219 126.292 45.0156 124.781 44.2031C123.271 43.3906 122.062 42.2396 121.156 40.75C120.25 39.2604 119.797 37.5938 119.797 35.75C119.797 34.4375 120.047 33.1875 120.547 32C121.057 30.8125 121.745 29.7865 122.609 28.9219C123.474 28.0573 124.516 27.3698 125.734 26.8594C126.953 26.349 128.245 26.0938 129.609 26.0938C131.516 26.0938 133.234 26.5 134.766 27.3125C136.307 28.125 137.521 29.2812 138.406 30.7812C139.292 32.2812 139.734 33.9896 139.734 35.9062ZM141.984 35.9062V47H140.859V35.9062C140.859 33.7812 140.365 31.8854 139.375 30.2188C138.385 28.5417 137.036 27.25 135.328 26.3438C133.62 25.4271 131.714 24.9688 129.609 24.9688C127.589 24.9688 125.74 25.4531 124.062 26.4219C122.385 27.3906 121.068 28.7031 120.109 30.3594C119.151 32.0052 118.672 33.8021 118.672 35.75C118.672 37.0312 118.875 38.25 119.281 39.4062C119.698 40.5521 120.26 41.5573 120.969 42.4219C121.688 43.276 122.51 44.0156 123.438 44.6406C124.375 45.2656 125.38 45.7396 126.453 46.0625C127.536 46.3854 128.635 46.5469 129.75 46.5469C130.979 46.5469 132.146 46.3125 133.25 45.8438V47C132.094 47.4062 130.906 47.6094 129.688 47.6094C128.427 47.6094 127.198 47.4323 126 47.0781C124.812 46.724 123.708 46.2031 122.688 45.5156C121.677 44.8177 120.786 44 120.016 43.0625C119.245 42.1146 118.641 41.0104 118.203 39.75C117.766 38.4896 117.547 37.1562 117.547 35.75C117.547 34.1354 117.849 32.599 118.453 31.1406C119.068 29.6719 119.901 28.4062 120.953 27.3438C122.016 26.2708 123.297 25.4219 124.797 24.7969C126.307 24.1615 127.911 23.8438 129.609 23.8438C131.339 23.8438 132.964 24.1354 134.484 24.7188C136.005 25.3021 137.318 26.1146 138.422 27.1562C139.526 28.1875 140.396 29.4583 141.031 30.9688C141.667 32.4792 141.984 34.125 141.984 35.9062ZM153.266 36.25H160.047C160.943 36.25 161.703 35.9688 162.328 35.4062C162.953 34.8438 163.266 34.0521 163.266 33.0312C163.266 32.2812 162.938 31.6094 162.281 31.0156C161.635 30.4219 160.891 30.125 160.047 30.125H150.391V47H149.266V29H160.047C161.203 29 162.214 29.4062 163.078 30.2188C163.953 31.0312 164.391 31.9688 164.391 33.0312C164.391 34.3542 163.969 35.4115 163.125 36.2031C162.281 36.9844 161.255 37.375 160.047 37.375H153.266V36.25ZM153.266 38.5H160.047C161.547 38.5 162.833 37.9896 163.906 36.9688C164.979 35.9479 165.516 34.6354 165.516 33.0312C165.516 31.6667 164.969 30.4688 163.875 29.4375C162.781 28.3958 161.505 27.875 160.047 27.875H148.141V47H147.016V26.75H160.047C161.818 26.75 163.359 27.3802 164.672 28.6406C165.984 29.8906 166.641 31.3542 166.641 33.0312C166.641 34.9062 165.99 36.474 164.688 37.7344C163.396 38.9948 161.849 39.625 160.047 39.625H153.266V38.5ZM153.266 40.75H160.047C161.432 40.75 162.714 40.4167 163.891 39.75C165.068 39.0833 166.005 38.1562 166.703 36.9688C167.411 35.7812 167.766 34.4688 167.766 33.0312C167.766 31.7292 167.417 30.5104 166.719 29.375C166.021 28.2292 165.073 27.3177 163.875 26.6406C162.688 25.9635 161.411 25.625 160.047 25.625H145.891V47H144.766V24.5H160.047C161.224 24.5 162.354 24.7344 163.438 25.2031C164.531 25.6615 165.474 26.276 166.266 27.0469C167.057 27.8073 167.693 28.7135 168.172 29.7656C168.651 30.8177 168.891 31.9062 168.891 33.0312C168.891 34.8542 168.474 36.4479 167.641 37.8125C166.807 39.1667 165.688 40.1979 164.281 40.9062L166.641 47H165.438L163.203 41.3594C162.922 41.4531 162.594 41.5469 162.219 41.6406L164.328 47H163.125L161.062 41.8281C160.74 41.8594 160.401 41.875 160.047 41.875L162.031 47H160.844L158.875 41.875H157.859L159.75 47H158.562L156.656 41.875H153.266V40.75ZM152.641 47H151.516V31.25H160.047C160.63 31.25 161.125 31.4271 161.531 31.7812C161.938 32.125 162.141 32.5417 162.141 33.0312C162.141 34.4271 161.443 35.125 160.047 35.125H153.266V34H160.047C160.693 34 161.016 33.6771 161.016 33.0312C161.016 32.8542 160.917 32.7031 160.719 32.5781C160.531 32.4427 160.307 32.375 160.047 32.375H152.641V47ZM185.766 32.9375V47H184.641V32.9375C184.641 32.6354 184.589 32.3802 184.484 32.1719C184.391 31.9531 184.266 31.7865 184.109 31.6719C183.953 31.5573 183.745 31.4688 183.484 31.4062C183.234 31.3333 182.99 31.2917 182.75 31.2812C182.51 31.2604 182.214 31.25 181.859 31.25C181.505 31.25 181.208 31.2604 180.969 31.2812C180.729 31.2917 180.479 31.3333 180.219 31.4062C179.969 31.4688 179.766 31.5573 179.609 31.6719C179.453 31.7865 179.323 31.9531 179.219 32.1719C179.125 32.3802 179.078 32.6354 179.078 32.9375V47H177.953V32.9375C177.953 31.0625 179.255 30.125 181.859 30.125C184.464 30.125 185.766 31.0625 185.766 32.9375ZM188.016 32.9375V47H186.891V32.9375C186.891 31.6146 186.422 30.6302 185.484 29.9844C184.557 29.3281 183.349 29 181.859 29C180.37 29 179.156 29.3281 178.219 29.9844C177.292 30.6302 176.828 31.6146 176.828 32.9375V47H175.703V32.9375C175.703 31.8438 175.984 30.9062 176.547 30.125C177.109 29.3438 177.844 28.776 178.75 28.4219C179.667 28.0573 180.703 27.875 181.859 27.875C183.016 27.875 184.047 28.0573 184.953 28.4219C185.87 28.776 186.609 29.3438 187.172 30.125C187.734 30.9062 188.016 31.8438 188.016 32.9375ZM190.266 32.9375V47H189.141V32.9375C189.141 31.9583 188.948 31.0729 188.562 30.2812C188.188 29.4896 187.667 28.8385 187 28.3281C186.333 27.8177 185.562 27.4271 184.688 27.1562C183.812 26.8854 182.87 26.75 181.859 26.75C180.849 26.75 179.906 26.8854 179.031 27.1562C178.156 27.4271 177.385 27.8177 176.719 28.3281C176.052 28.8385 175.526 29.4896 175.141 30.2812C174.766 31.0729 174.578 31.9583 174.578 32.9375V47H173.453V32.9375C173.453 31.8021 173.672 30.7708 174.109 29.8438C174.557 28.9167 175.161 28.151 175.922 27.5469C176.682 26.9323 177.573 26.4583 178.594 26.125C179.615 25.7917 180.703 25.625 181.859 25.625C183.016 25.625 184.104 25.7917 185.125 26.125C186.146 26.4583 187.036 26.9323 187.797 27.5469C188.557 28.151 189.156 28.9167 189.594 29.8438C190.042 30.7708 190.266 31.8021 190.266 32.9375ZM192.516 47H191.391V32.9375C191.391 31.8021 191.135 30.7135 190.625 29.6719C190.125 28.6302 189.448 27.7344 188.594 26.9844C187.74 26.224 186.724 25.6198 185.547 25.1719C184.37 24.724 183.141 24.5 181.859 24.5C180.099 24.5 178.5 24.8333 177.062 25.5C175.635 26.1562 174.49 27.1354 173.625 28.4375C172.76 29.7292 172.328 31.2292 172.328 32.9375V47H171.203V32.9375C171.203 31.5 171.484 30.1771 172.047 28.9688C172.609 27.7604 173.37 26.75 174.328 25.9375C175.297 25.125 176.427 24.4948 177.719 24.0469C179.021 23.599 180.401 23.375 181.859 23.375C184.443 23.375 186.682 24.026 188.578 25.3281C190.474 24.026 192.714 23.375 195.297 23.375C196.755 23.375 198.13 23.599 199.422 24.0469C200.724 24.4948 201.854 25.125 202.812 25.9375C203.781 26.75 204.547 27.7604 205.109 28.9688C205.672 30.1771 205.953 31.5 205.953 32.9375V47H204.828V32.9375C204.828 31.2396 204.396 29.7448 203.531 28.4531C202.667 27.151 201.516 26.1667 200.078 25.5C198.651 24.8333 197.057 24.5 195.297 24.5C193.089 24.5 191.161 25.0208 189.516 26.0625C189.755 26.2708 190.021 26.5417 190.312 26.875C191.74 26.0417 193.401 25.625 195.297 25.625C196.453 25.625 197.542 25.7917 198.562 26.125C199.583 26.4583 200.474 26.9323 201.234 27.5469C201.995 28.151 202.594 28.9167 203.031 29.8438C203.479 30.7708 203.703 31.8021 203.703 32.9375V47H202.578V32.9375C202.578 31.9583 202.385 31.0729 202 30.2812C201.625 29.4896 201.104 28.8385 200.438 28.3281C199.771 27.8177 199 27.4271 198.125 27.1562C197.25 26.8854 196.307 26.75 195.297 26.75C193.641 26.75 192.208 27.0885 191 27.7656C191.188 28.0573 191.375 28.3802 191.562 28.7344C192.583 28.1615 193.828 27.875 195.297 27.875C196.453 27.875 197.484 28.0573 198.391 28.4219C199.307 28.776 200.047 29.3438 200.609 30.125C201.172 30.9062 201.453 31.8438 201.453 32.9375V47H200.328V32.9375C200.328 31.6146 199.859 30.6302 198.922 29.9844C197.995 29.3281 196.786 29 195.297 29C193.943 29 192.844 29.25 192 29.75C192.135 30.1458 192.24 30.5208 192.312 30.875C192.969 30.375 193.964 30.125 195.297 30.125C197.901 30.125 199.203 31.0625 199.203 32.9375V47H198.078V32.9375C198.078 32.6354 198.026 32.3802 197.922 32.1719C197.828 31.9531 197.703 31.7865 197.547 31.6719C197.391 31.5573 197.182 31.4688 196.922 31.4062C196.672 31.3333 196.427 31.2917 196.188 31.2812C195.948 31.2604 195.651 31.25 195.297 31.25C194.943 31.25 194.646 31.2604 194.406 31.2812C194.167 31.2917 193.917 31.3333 193.656 31.4062C193.406 31.4688 193.203 31.5573 193.047 31.6719C192.891 31.7865 192.76 31.9531 192.656 32.1719C192.562 32.3802 192.516 32.6354 192.516 32.9375V47ZM224.734 35.9062C224.734 34.5729 224.323 33.5417 223.5 32.8125C222.677 32.0833 221.589 31.7188 220.234 31.7188C219.089 31.7188 218.104 32.1146 217.281 32.9062C216.458 33.6979 216.047 34.6458 216.047 35.75C216.047 36.375 216.13 36.9375 216.297 37.4375C216.464 37.9271 216.688 38.3385 216.969 38.6719C217.26 38.9948 217.604 39.2656 218 39.4844C218.396 39.6927 218.807 39.8438 219.234 39.9375C219.672 40.0312 220.135 40.0781 220.625 40.0781C221.812 40.0781 222.896 39.7865 223.875 39.2031V40.3281C222.865 40.8594 221.776 41.125 220.609 41.125C219.859 41.125 219.151 41.026 218.484 40.8281C217.828 40.6198 217.229 40.3125 216.688 39.9062C216.146 39.4896 215.714 38.9271 215.391 38.2188C215.078 37.5 214.922 36.6771 214.922 35.75C214.922 34.3125 215.427 33.0938 216.438 32.0938C217.448 31.0938 218.714 30.5938 220.234 30.5938C221.911 30.5938 223.266 31.0677 224.297 32.0156C225.339 32.9531 225.859 34.25 225.859 35.9062V47H224.734V35.9062ZM228.109 35.9062V47H226.984V35.9062C226.984 33.9375 226.354 32.375 225.094 31.2188C223.833 30.0521 222.214 29.4688 220.234 29.4688C218.401 29.4688 216.87 30.0781 215.641 31.2969C214.411 32.5156 213.797 34 213.797 35.75C213.797 36.8125 213.979 37.7656 214.344 38.6094C214.719 39.4531 215.224 40.1302 215.859 40.6406C216.495 41.151 217.203 41.5417 217.984 41.8125C218.776 42.0729 219.609 42.2031 220.484 42.2031C221.672 42.2031 222.802 41.9271 223.875 41.375V42.5625C222.75 43.0312 221.615 43.2656 220.469 43.2656C219.438 43.2656 218.458 43.1094 217.531 42.7969C216.604 42.474 215.776 42.0104 215.047 41.4062C214.318 40.7917 213.74 40 213.312 39.0312C212.885 38.0521 212.672 36.9583 212.672 35.75C212.672 33.6979 213.396 31.9531 214.844 30.5156C216.302 29.0677 218.099 28.3438 220.234 28.3438C221.734 28.3438 223.078 28.651 224.266 29.2656C225.453 29.8698 226.391 30.75 227.078 31.9062C227.766 33.0625 228.109 34.3958 228.109 35.9062ZM230.359 35.9062V47H229.234V35.9062C229.234 34.1875 228.839 32.6667 228.047 31.3438C227.266 30.0104 226.193 28.9896 224.828 28.2812C223.464 27.5729 221.932 27.2188 220.234 27.2188C218.62 27.2188 217.146 27.6042 215.812 28.375C214.479 29.1354 213.432 30.1667 212.672 31.4688C211.922 32.7708 211.547 34.1979 211.547 35.75C211.547 37.0833 211.792 38.3021 212.281 39.4062C212.771 40.5 213.427 41.401 214.25 42.1094C215.083 42.8177 216.026 43.3698 217.078 43.7656C218.141 44.151 219.25 44.3438 220.406 44.3438C221.583 44.3438 222.74 44.099 223.875 43.6094V44.75C222.688 45.1979 221.521 45.4219 220.375 45.4219C218.573 45.4219 216.917 45.0156 215.406 44.2031C213.896 43.3906 212.688 42.2396 211.781 40.75C210.875 39.2604 210.422 37.5938 210.422 35.75C210.422 34.4375 210.672 33.1875 211.172 32C211.682 30.8125 212.37 29.7865 213.234 28.9219C214.099 28.0573 215.141 27.3698 216.359 26.8594C217.578 26.349 218.87 26.0938 220.234 26.0938C222.141 26.0938 223.859 26.5 225.391 27.3125C226.932 28.125 228.146 29.2812 229.031 30.7812C229.917 32.2812 230.359 33.9896 230.359 35.9062ZM232.609 35.9062V47H231.484V35.9062C231.484 33.7812 230.99 31.8854 230 30.2188C229.01 28.5417 227.661 27.25 225.953 26.3438C224.245 25.4271 222.339 24.9688 220.234 24.9688C218.214 24.9688 216.365 25.4531 214.688 26.4219C213.01 27.3906 211.693 28.7031 210.734 30.3594C209.776 32.0052 209.297 33.8021 209.297 35.75C209.297 37.0312 209.5 38.25 209.906 39.4062C210.323 40.5521 210.885 41.5573 211.594 42.4219C212.312 43.276 213.135 44.0156 214.062 44.6406C215 45.2656 216.005 45.7396 217.078 46.0625C218.161 46.3854 219.26 46.5469 220.375 46.5469C221.604 46.5469 222.771 46.3125 223.875 45.8438V47C222.719 47.4062 221.531 47.6094 220.312 47.6094C219.052 47.6094 217.823 47.4323 216.625 47.0781C215.438 46.724 214.333 46.2031 213.312 45.5156C212.302 44.8177 211.411 44 210.641 43.0625C209.87 42.1146 209.266 41.0104 208.828 39.75C208.391 38.4896 208.172 37.1562 208.172 35.75C208.172 34.1354 208.474 32.599 209.078 31.1406C209.693 29.6719 210.526 28.4062 211.578 27.3438C212.641 26.2708 213.922 25.4219 215.422 24.7969C216.932 24.1615 218.536 23.8438 220.234 23.8438C221.964 23.8438 223.589 24.1354 225.109 24.7188C226.63 25.3021 227.943 26.1146 229.047 27.1562C230.151 28.1875 231.021 29.4583 231.656 30.9688C232.292 32.4792 232.609 34.125 232.609 35.9062Z" fill="#000965"/>
<defs>
<filter id="filter0_d_53309_28407" x="0" y="0" width="252" height="78" filterUnits="userSpaceOnUse" color-interpolation-filters="sRGB">
<feFlood flood-opacity="0" result="BackgroundImageFix"/>
<feColorMatrix in="SourceAlpha" type="matrix" values="0 0 0 0 0 0 0 0 0 0 0 0 0 0 0 0 0 0 127 0" result="hardAlpha"/>
<feOffset dy="4"/>
<feGaussianBlur stdDeviation="2"/>
<feComposite in2="hardAlpha" operator="out"/>
<feColorMatrix type="matrix" values="0 0 0 0 0 0 0 0 0 0 0 0 0 0 0 0 0 0 0.25 0"/>
<feBlend mode="normal" in2="BackgroundImageFix" result="effect1_dropShadow_53309_28407"/>
<feBlend mode="normal" in="SourceGraphic" in2="effect1_dropShadow_53309_28407" result="shape"/>
</filter>
</defs>
</svg>
